<svg xmlns="http://www.w3.org/2000/svg">
  <symbol id="pause" viewBox="0 96 960 960">
    <path d="M366.67 736h66.66V416h-66.66v320Zm160 0h66.66V416h-66.66v320ZM480 976q-82.33 0-155.33-31.5-73-31.5-127.34-85.83Q143 804.33 111.5 731.33T80 576q0-83 31.5-156t85.83-127q54.34-54 127.34-85.5T480 176q83 0 156 31.5T763 293q54 54 85.5 127T880 576q0 82.33-31.5 155.33-31.5 73-85.5 127.34Q709 913 636 944.5T480 976Zm0-66.67q139.33 0 236.33-97.33t97-236q0-139.33-97-236.33t-236.33-97q-138.67 0-236 97-97.33 97-97.33 236.33 0 138.67 97.33 236 97.33 97.33 236 97.33ZM480 576Z" fill="currentColor"/>
  </symbol>
  <symbol id="play" viewBox="0 -960 960 960">
    <path d="m380-300 280-180-280-180v360ZM480-80q-83 0-156-31.5T197-197q-54-54-85.5-127T80-480q0-83 31.5-156T197-763q54-54 127-85.5T480-880q83 0 156 31.5T763-763q54 54 85.5 127T880-480q0 83-31.5 156T763-197q-54 54-127 85.5T480-80Zm0-80q134 0 227-93t93-227q0-134-93-227t-227-93q-134 0-227 93t-93 227q0 134 93 227t227 93Zm0-320Z" fill="currentColor"/>
  </symbol>
</svg>
